<svg width="156" height="64" viewBox="0 0 156 64" fill="none" xmlns="http://www.w3.org/2000/svg">
<path d="M11.368 10.2H7.88V20H5.728V10.2H2.24V8.432H11.368V10.2ZM12.8244 13.216C13.0804 12.7253 13.3844 12.3413 13.7364 12.064C14.0884 11.7813 14.5044 11.64 14.9844 11.64C15.363 11.64 15.667 11.7227 15.8964 11.888L15.7684 13.368C15.7417 13.464 15.7017 13.5333 15.6484 13.576C15.6004 13.6133 15.5337 13.632 15.4484 13.632C15.3684 13.632 15.2484 13.6187 15.0884 13.592C14.9337 13.5653 14.7817 13.552 14.6324 13.552C14.4137 13.552 14.219 13.584 14.0484 13.648C13.8777 13.712 13.723 13.8053 13.5844 13.928C13.451 14.0453 13.331 14.1893 13.2244 14.36C13.123 14.5307 13.027 14.7253 12.9364 14.944V20H10.9604V11.792H12.1204C12.323 11.792 12.4644 11.8293 12.5444 11.904C12.6244 11.9733 12.6777 12.1013 12.7044 12.288L12.8244 13.216ZM18.9771 11.792V20H16.9931V11.792H18.9771ZM19.2491 9.4C19.2491 9.57067 19.2145 9.73067 19.1451 9.88C19.0758 10.0293 18.9825 10.16 18.8651 10.272C18.7531 10.384 18.6198 10.4747 18.4651 10.544C18.3105 10.608 18.1451 10.64 17.9691 10.64C17.7985 10.64 17.6358 10.608 17.4811 10.544C17.3318 10.4747 17.2011 10.384 17.0891 10.272C16.9771 10.16 16.8865 10.0293 16.8171 9.88C16.7531 9.73067 16.7211 9.57067 16.7211 9.4C16.7211 9.224 16.7531 9.05867 16.8171 8.904C16.8865 8.74933 16.9771 8.616 17.0891 8.504C17.2011 8.392 17.3318 8.304 17.4811 8.24C17.6358 8.17067 17.7985 8.136 17.9691 8.136C18.1451 8.136 18.3105 8.17067 18.4651 8.24C18.6198 8.304 18.7531 8.392 18.8651 8.504C18.9825 8.616 19.0758 8.74933 19.1451 8.904C19.2145 9.05867 19.2491 9.224 19.2491 9.4ZM23.9916 15.696C24.237 15.696 24.4503 15.664 24.6316 15.6C24.813 15.5307 24.9623 15.4373 25.0796 15.32C25.2023 15.2027 25.293 15.0613 25.3516 14.896C25.4156 14.7307 25.4476 14.5493 25.4476 14.352C25.4476 13.9467 25.325 13.6267 25.0796 13.392C24.8396 13.152 24.477 13.032 23.9916 13.032C23.5063 13.032 23.141 13.152 22.8956 13.392C22.6556 13.6267 22.5356 13.9467 22.5356 14.352C22.5356 14.544 22.565 14.7227 22.6236 14.888C22.6876 15.0533 22.7783 15.1973 22.8956 15.32C23.0183 15.4373 23.1703 15.5307 23.3516 15.6C23.5383 15.664 23.7516 15.696 23.9916 15.696ZM26.2236 20.368C26.2236 20.208 26.1756 20.0773 26.0796 19.976C25.9836 19.8747 25.853 19.7973 25.6876 19.744C25.5223 19.6853 25.3276 19.6427 25.1036 19.616C24.885 19.5893 24.6503 19.5707 24.3996 19.56C24.1543 19.544 23.8983 19.5307 23.6316 19.52C23.3703 19.5093 23.1143 19.488 22.8636 19.456C22.645 19.5787 22.4663 19.7227 22.3276 19.888C22.1943 20.0533 22.1276 20.2453 22.1276 20.464C22.1276 20.608 22.1623 20.7413 22.2316 20.864C22.3063 20.992 22.421 21.1013 22.5756 21.192C22.7356 21.2827 22.941 21.352 23.1916 21.4C23.4423 21.4533 23.749 21.48 24.1116 21.48C24.4796 21.48 24.797 21.4507 25.0636 21.392C25.3303 21.3387 25.549 21.2613 25.7196 21.16C25.8956 21.064 26.0236 20.9467 26.1036 20.808C26.1836 20.6747 26.2236 20.528 26.2236 20.368ZM28.1916 12.072V12.808C28.1916 13.0427 28.0503 13.1867 27.7676 13.24L27.0316 13.376C27.1436 13.6587 27.1996 13.968 27.1996 14.304C27.1996 14.7093 27.117 15.0773 26.9516 15.408C26.7916 15.7333 26.5676 16.0107 26.2796 16.24C25.9916 16.4693 25.6503 16.648 25.2556 16.776C24.8663 16.8987 24.445 16.96 23.9916 16.96C23.8316 16.96 23.677 16.952 23.5276 16.936C23.3783 16.92 23.2316 16.8987 23.0876 16.872C22.8316 17.0267 22.7036 17.2 22.7036 17.392C22.7036 17.5573 22.7783 17.68 22.9276 17.76C23.0823 17.8347 23.285 17.888 23.5356 17.92C23.7863 17.952 24.0716 17.9733 24.3916 17.984C24.7116 17.9893 25.0396 18.0053 25.3756 18.032C25.7116 18.0587 26.0396 18.1067 26.3596 18.176C26.6796 18.24 26.965 18.344 27.2156 18.488C27.4663 18.632 27.6663 18.8293 27.8156 19.08C27.9703 19.3253 28.0476 19.6427 28.0476 20.032C28.0476 20.3947 27.957 20.7467 27.7756 21.088C27.5996 21.4293 27.341 21.7333 26.9996 22C26.6636 22.2667 26.2476 22.48 25.7516 22.64C25.261 22.8053 24.701 22.888 24.0716 22.888C23.453 22.888 22.9143 22.8267 22.4556 22.704C21.997 22.5867 21.6156 22.4267 21.3116 22.224C21.0076 22.0267 20.781 21.7973 20.6316 21.536C20.4823 21.2747 20.4076 21.0027 20.4076 20.72C20.4076 20.336 20.5223 20.016 20.7516 19.76C20.9863 19.4987 21.3063 19.2907 21.7116 19.136C21.493 19.024 21.3196 18.8747 21.1916 18.688C21.0636 18.5013 20.9996 18.256 20.9996 17.952C20.9996 17.8293 21.021 17.704 21.0636 17.576C21.1116 17.4427 21.1783 17.312 21.2636 17.184C21.3543 17.056 21.4663 16.936 21.5996 16.824C21.733 16.7067 21.8903 16.6027 22.0716 16.512C21.6556 16.288 21.3276 15.9893 21.0876 15.616C20.853 15.2427 20.7356 14.8053 20.7356 14.304C20.7356 13.8987 20.8156 13.5333 20.9756 13.208C21.141 12.8773 21.3676 12.5973 21.6556 12.368C21.949 12.1333 22.293 11.9547 22.6876 11.832C23.0876 11.7093 23.5223 11.648 23.9916 11.648C24.3436 11.648 24.6743 11.6853 24.9836 11.76C25.293 11.8293 25.5756 11.9333 25.8316 12.072H28.1916ZM33.7808 16.496C33.2101 16.5227 32.7301 16.5733 32.3408 16.648C31.9514 16.7173 31.6394 16.808 31.4048 16.92C31.1701 17.032 31.0021 17.1627 30.9008 17.312C30.7994 17.4613 30.7488 17.624 30.7488 17.8C30.7488 18.1467 30.8501 18.3947 31.0528 18.544C31.2608 18.6933 31.5301 18.768 31.8608 18.768C32.2661 18.768 32.6154 18.696 32.9088 18.552C33.2074 18.4027 33.4981 18.1787 33.7808 17.88V16.496ZM29.2528 12.936C30.1968 12.072 31.3328 11.64 32.6608 11.64C33.1408 11.64 33.5701 11.72 33.9488 11.88C34.3274 12.0347 34.6474 12.2533 34.9088 12.536C35.1701 12.8133 35.3674 13.1467 35.5008 13.536C35.6394 13.9253 35.7088 14.352 35.7088 14.816V20H34.8128C34.6261 20 34.4821 19.9733 34.3808 19.92C34.2794 19.8613 34.1994 19.7467 34.1408 19.576L33.9648 18.984C33.7568 19.1707 33.5541 19.336 33.3568 19.48C33.1594 19.6187 32.9541 19.736 32.7408 19.832C32.5274 19.928 32.2981 20 32.0528 20.048C31.8128 20.1013 31.5461 20.128 31.2528 20.128C30.9061 20.128 30.5861 20.0827 30.2928 19.992C29.9994 19.896 29.7461 19.7547 29.5328 19.568C29.3194 19.3813 29.1541 19.1493 29.0368 18.872C28.9194 18.5947 28.8608 18.272 28.8608 17.904C28.8608 17.696 28.8954 17.4907 28.9648 17.288C29.0341 17.08 29.1461 16.8827 29.3008 16.696C29.4608 16.5093 29.6661 16.3333 29.9168 16.168C30.1674 16.0027 30.4741 15.8587 30.8368 15.736C31.2048 15.6133 31.6314 15.5147 32.1168 15.44C32.6021 15.36 33.1568 15.312 33.7808 15.296V14.816C33.7808 14.2667 33.6634 13.8613 33.4288 13.6C33.1941 13.3333 32.8554 13.2 32.4128 13.2C32.0928 13.2 31.8261 13.2373 31.6128 13.312C31.4048 13.3867 31.2208 13.472 31.0608 13.568C30.9008 13.6587 30.7541 13.7413 30.6208 13.816C30.4928 13.8907 30.3488 13.928 30.1888 13.928C30.0501 13.928 29.9328 13.8933 29.8368 13.824C29.7408 13.7493 29.6634 13.664 29.6048 13.568L29.2528 12.936Z" fill="#1B3180"/>
<path d="M1.6875 55V28.8182H12.9886C14.9318 28.8182 16.6321 29.2017 18.0895 29.9688C19.5469 30.7358 20.6804 31.8139 21.4901 33.2031C22.2997 34.5923 22.7045 36.2159 22.7045 38.0739C22.7045 39.9489 22.2869 41.5724 21.4517 42.9446C20.625 44.3168 19.4616 45.3736 17.9616 46.1151C16.4702 46.8565 14.7273 47.2273 12.733 47.2273H5.98295V41.7045H11.3011C12.1364 41.7045 12.848 41.5597 13.4361 41.2699C14.0327 40.9716 14.4886 40.5497 14.804 40.0043C15.1278 39.4588 15.2898 38.8153 15.2898 38.0739C15.2898 37.3239 15.1278 36.6847 14.804 36.1562C14.4886 35.6193 14.0327 35.2102 13.4361 34.929C12.848 34.6392 12.1364 34.4943 11.3011 34.4943H8.79545V55H1.6875ZM31.5441 55H23.8737L32.5157 28.8182H42.2316L50.8737 55H43.2032L37.4759 36.0284H37.2714L31.5441 55ZM30.1123 44.6705H44.5327V49.9886H30.1123V44.6705ZM78.7487 28.8182V55H72.8169L63.3567 41.2443H63.2033V55H56.0953V28.8182H62.1294L71.4362 42.5227H71.6408V28.8182H78.7487ZM109.254 38.6364H102.044C101.993 38.0398 101.856 37.4986 101.635 37.0128C101.422 36.527 101.123 36.1094 100.74 35.7599C100.365 35.402 99.9089 35.1293 99.372 34.9418C98.8351 34.7457 98.2257 34.6477 97.5439 34.6477C96.3507 34.6477 95.3408 34.9375 94.5141 35.517C93.6959 36.0966 93.0737 36.9276 92.6476 38.0099C92.23 39.0923 92.0212 40.392 92.0212 41.9091C92.0212 43.5114 92.2342 44.8537 92.6604 45.9361C93.095 47.0099 93.7214 47.8196 94.5396 48.3651C95.3578 48.902 96.3422 49.1705 97.4928 49.1705C98.149 49.1705 98.7371 49.0895 99.257 48.9276C99.7768 48.7571 100.229 48.5142 100.612 48.1989C100.996 47.8835 101.307 47.5043 101.545 47.0611C101.792 46.6094 101.959 46.1023 102.044 45.5398L109.254 45.5909C109.169 46.6989 108.858 47.8281 108.321 48.9787C107.784 50.1207 107.021 51.1776 106.033 52.1491C105.052 53.1122 103.838 53.8878 102.389 54.4759C100.94 55.0639 99.257 55.358 97.3393 55.358C94.9359 55.358 92.7797 54.8423 90.8706 53.8111C88.97 52.7798 87.4658 51.2628 86.3578 49.2599C85.2584 47.2571 84.7087 44.8068 84.7087 41.9091C84.7087 38.9943 85.2712 36.5398 86.3962 34.5455C87.5212 32.5426 89.0382 31.0298 90.9473 30.0071C92.8564 28.9759 94.9871 28.4602 97.3393 28.4602C98.9928 28.4602 100.514 28.6861 101.903 29.1378C103.292 29.5895 104.511 30.25 105.56 31.1193C106.608 31.9801 107.452 33.0412 108.091 34.3026C108.73 35.5639 109.118 37.0085 109.254 38.6364ZM122.287 28.8182V55H115.179V28.8182H122.287Z" fill="#1B3180"/>
<path fill-rule="evenodd" clip-rule="evenodd" d="M133.862 0.989519C134.273 1.15994 134.624 1.44842 134.871 1.81848C135.118 2.18853 135.25 2.62355 135.25 3.06852V30.0685C135.25 30.5135 135.118 30.9484 134.871 31.3183C134.623 31.6882 134.272 31.9765 133.861 32.1468C133.45 32.3171 132.998 32.3616 132.561 32.2748C132.125 32.1881 131.724 31.9738 131.409 31.6593L123.068 23.3185H117.25C116.653 23.3185 116.081 23.0815 115.659 22.6595C115.237 22.2376 115 21.6653 115 21.0685V12.0685C115 11.4718 115.237 10.8995 115.659 10.4775C116.081 10.0556 116.653 9.81852 117.25 9.81852H123.068L131.409 1.47777C131.724 1.16292 132.125 0.948475 132.561 0.861565C132.998 0.774654 133.451 0.819184 133.862 0.989519ZM145.728 0.658769C146.15 0.236959 146.722 0 147.319 0C147.916 0 148.488 0.236959 148.91 0.658769C151.002 2.74599 152.661 5.22594 153.792 7.95621C154.923 10.6865 155.503 13.6133 155.5 16.5685C155.503 19.5238 154.923 22.4506 153.792 25.1808C152.661 27.9111 151.002 30.3911 148.91 32.4783C148.485 32.8881 147.917 33.1149 147.327 33.1098C146.737 33.1047 146.173 32.868 145.756 32.4509C145.338 32.0337 145.102 31.4694 145.097 30.8794C145.092 30.2895 145.318 29.7211 145.728 29.2968C147.403 27.6274 148.73 25.6434 149.635 23.459C150.54 21.2746 151.004 18.9329 151 16.5685C151 11.596 148.988 7.10052 145.728 3.84027C145.306 3.41833 145.069 2.84614 145.069 2.24952C145.069 1.6529 145.306 1.08071 145.728 0.658769ZM139.363 7.02177C139.572 6.81257 139.82 6.64661 140.093 6.53339C140.366 6.42016 140.659 6.36187 140.955 6.36187C141.251 6.36187 141.543 6.42016 141.816 6.53339C142.09 6.64661 142.338 6.81257 142.547 7.02177C143.802 8.27427 144.797 9.76242 145.476 11.4007C146.154 13.0391 146.502 14.7953 146.5 16.5685C146.502 18.3417 146.154 20.0979 145.476 21.7362C144.797 23.3745 143.802 24.8627 142.547 26.1153C142.125 26.5375 141.552 26.7746 140.955 26.7746C140.358 26.7746 139.785 26.5375 139.363 26.1153C138.941 25.6931 138.704 25.1205 138.704 24.5234C138.704 23.9263 138.941 23.3537 139.363 22.9315C140.2 22.0972 140.864 21.1054 141.317 20.0134C141.77 18.9214 142.002 17.7506 142 16.5685C142.002 15.3864 141.77 14.2156 141.317 13.1236C140.865 12.0315 140.2 11.0398 139.363 10.2055C139.154 9.99656 138.988 9.74841 138.875 9.47526C138.761 9.20211 138.703 8.90933 138.703 8.61364C138.703 8.31796 138.761 8.02517 138.875 7.75203C138.988 7.47888 139.154 7.23073 139.363 7.02177Z" fill="#1B3180"/>
</svg>
