<svg width="101" height="51" viewBox="0 0 101 51" fill="none" xmlns="http://www.w3.org/2000/svg">
<path d="M63.784 12.096C63.248 12.096 62.836 11.946 62.548 11.646C62.264 11.342 62.122 10.924 62.122 10.392V6.954H61.492C61.412 6.954 61.344 6.928 61.288 6.876C61.232 6.824 61.204 6.746 61.204 6.642V6.054L62.194 5.892L62.506 4.212C62.526 4.132 62.564 4.07 62.62 4.026C62.676 3.982 62.748 3.96 62.836 3.96H63.604V5.898H65.248V6.954H63.604V10.29C63.604 10.482 63.65 10.632 63.742 10.74C63.838 10.848 63.968 10.902 64.132 10.902C64.224 10.902 64.3 10.892 64.36 10.872C64.424 10.848 64.478 10.824 64.522 10.8C64.57 10.776 64.612 10.754 64.648 10.734C64.684 10.71 64.72 10.698 64.756 10.698C64.8 10.698 64.836 10.71 64.864 10.734C64.892 10.754 64.922 10.786 64.954 10.83L65.398 11.55C65.182 11.73 64.934 11.866 64.654 11.958C64.374 12.05 64.084 12.096 63.784 12.096ZM69.4488 9.372C69.0208 9.392 68.6608 9.43 68.3688 9.486C68.0768 9.538 67.8428 9.606 67.6668 9.69C67.4908 9.774 67.3648 9.872 67.2888 9.984C67.2128 10.096 67.1748 10.218 67.1748 10.35C67.1748 10.61 67.2508 10.796 67.4028 10.908C67.5588 11.02 67.7608 11.076 68.0088 11.076C68.3128 11.076 68.5748 11.022 68.7948 10.914C69.0188 10.802 69.2368 10.634 69.4488 10.41V9.372ZM66.0528 6.702C66.7608 6.054 67.6128 5.73 68.6088 5.73C68.9688 5.73 69.2908 5.79 69.5748 5.91C69.8588 6.026 70.0988 6.19 70.2948 6.402C70.4908 6.61 70.6388 6.86 70.7388 7.152C70.8428 7.444 70.8948 7.764 70.8948 8.112V12H70.2228C70.0828 12 69.9748 11.98 69.8988 11.94C69.8228 11.896 69.7628 11.81 69.7188 11.682L69.5868 11.238C69.4308 11.378 69.2788 11.502 69.1308 11.61C68.9828 11.714 68.8288 11.802 68.6688 11.874C68.5088 11.946 68.3368 12 68.1528 12.036C67.9728 12.076 67.7728 12.096 67.5528 12.096C67.2928 12.096 67.0528 12.062 66.8328 11.994C66.6128 11.922 66.4228 11.816 66.2628 11.676C66.1028 11.536 65.9788 11.362 65.8908 11.154C65.8028 10.946 65.7588 10.704 65.7588 10.428C65.7588 10.272 65.7848 10.118 65.8368 9.966C65.8888 9.81 65.9728 9.662 66.0888 9.522C66.2088 9.382 66.3628 9.25 66.5508 9.126C66.7388 9.002 66.9688 8.894 67.2408 8.802C67.5168 8.71 67.8368 8.636 68.2008 8.58C68.5648 8.52 68.9808 8.484 69.4488 8.472V8.112C69.4488 7.7 69.3608 7.396 69.1848 7.2C69.0088 7 68.7548 6.9 68.4228 6.9C68.1828 6.9 67.9828 6.928 67.8228 6.984C67.6668 7.04 67.5288 7.104 67.4088 7.176C67.2888 7.244 67.1788 7.306 67.0788 7.362C66.9828 7.418 66.8748 7.446 66.7548 7.446C66.6508 7.446 66.5628 7.42 66.4908 7.368C66.4188 7.312 66.3608 7.248 66.3168 7.176L66.0528 6.702ZM74.5406 8.772C74.7246 8.772 74.8846 8.748 75.0206 8.7C75.1566 8.648 75.2686 8.578 75.3566 8.49C75.4486 8.402 75.5166 8.296 75.5606 8.172C75.6086 8.048 75.6326 7.912 75.6326 7.764C75.6326 7.46 75.5406 7.22 75.3566 7.044C75.1766 6.864 74.9046 6.774 74.5406 6.774C74.1766 6.774 73.9026 6.864 73.7186 7.044C73.5386 7.22 73.4486 7.46 73.4486 7.764C73.4486 7.908 73.4706 8.042 73.5146 8.166C73.5626 8.29 73.6306 8.398 73.7186 8.49C73.8106 8.578 73.9246 8.648 74.0606 8.7C74.2006 8.748 74.3606 8.772 74.5406 8.772ZM76.2146 12.276C76.2146 12.156 76.1786 12.058 76.1066 11.982C76.0346 11.906 75.9366 11.848 75.8126 11.808C75.6886 11.764 75.5426 11.732 75.3746 11.712C75.2106 11.692 75.0346 11.678 74.8466 11.67C74.6626 11.658 74.4706 11.648 74.2706 11.64C74.0746 11.632 73.8826 11.616 73.6946 11.592C73.5306 11.684 73.3966 11.792 73.2926 11.916C73.1926 12.04 73.1426 12.184 73.1426 12.348C73.1426 12.456 73.1686 12.556 73.2206 12.648C73.2766 12.744 73.3626 12.826 73.4786 12.894C73.5986 12.962 73.7526 13.014 73.9406 13.05C74.1286 13.09 74.3586 13.11 74.6306 13.11C74.9066 13.11 75.1446 13.088 75.3446 13.044C75.5446 13.004 75.7086 12.946 75.8366 12.87C75.9686 12.798 76.0646 12.71 76.1246 12.606C76.1846 12.506 76.2146 12.396 76.2146 12.276ZM77.6906 6.054V6.606C77.6906 6.782 77.5846 6.89 77.3726 6.93L76.8206 7.032C76.9046 7.244 76.9466 7.476 76.9466 7.728C76.9466 8.032 76.8846 8.308 76.7606 8.556C76.6406 8.8 76.4726 9.008 76.2566 9.18C76.0406 9.352 75.7846 9.486 75.4886 9.582C75.1966 9.674 74.8806 9.72 74.5406 9.72C74.4206 9.72 74.3046 9.714 74.1926 9.702C74.0806 9.69 73.9706 9.674 73.8626 9.654C73.6706 9.77 73.5746 9.9 73.5746 10.044C73.5746 10.168 73.6306 10.26 73.7426 10.32C73.8586 10.376 74.0106 10.416 74.1986 10.44C74.3866 10.464 74.6006 10.48 74.8406 10.488C75.0806 10.492 75.3266 10.504 75.5786 10.524C75.8306 10.544 76.0766 10.58 76.3166 10.632C76.5566 10.68 76.7706 10.758 76.9586 10.866C77.1466 10.974 77.2966 11.122 77.4086 11.31C77.5246 11.494 77.5826 11.732 77.5826 12.024C77.5826 12.296 77.5146 12.56 77.3786 12.816C77.2466 13.072 77.0526 13.3 76.7966 13.5C76.5446 13.7 76.2326 13.86 75.8606 13.98C75.4926 14.104 75.0726 14.166 74.6006 14.166C74.1366 14.166 73.7326 14.12 73.3886 14.028C73.0446 13.94 72.7586 13.82 72.5306 13.668C72.3026 13.52 72.1326 13.348 72.0206 13.152C71.9086 12.956 71.8526 12.752 71.8526 12.54C71.8526 12.252 71.9386 12.012 72.1106 11.82C72.2866 11.624 72.5266 11.468 72.8306 11.352C72.6666 11.268 72.5366 11.156 72.4406 11.016C72.3446 10.876 72.2966 10.692 72.2966 10.464C72.2966 10.372 72.3126 10.278 72.3446 10.182C72.3806 10.082 72.4306 9.984 72.4946 9.888C72.5626 9.792 72.6466 9.702 72.7466 9.618C72.8466 9.53 72.9646 9.452 73.1006 9.384C72.7886 9.216 72.5426 8.992 72.3626 8.712C72.1866 8.432 72.0986 8.104 72.0986 7.728C72.0986 7.424 72.1586 7.15 72.2786 6.906C72.4026 6.658 72.5726 6.448 72.7886 6.276C73.0086 6.1 73.2666 5.966 73.5626 5.874C73.8626 5.782 74.1886 5.736 74.5406 5.736C74.8046 5.736 75.0526 5.764 75.2846 5.82C75.5166 5.872 75.7286 5.95 75.9206 6.054H77.6906ZM80.1664 5.844V12H78.6784V5.844H80.1664ZM80.3704 4.05C80.3704 4.178 80.3444 4.298 80.2924 4.41C80.2404 4.522 80.1704 4.62 80.0824 4.704C79.9984 4.788 79.8984 4.856 79.7824 4.908C79.6664 4.956 79.5424 4.98 79.4104 4.98C79.2824 4.98 79.1604 4.956 79.0444 4.908C78.9324 4.856 78.8344 4.788 78.7504 4.704C78.6664 4.62 78.5984 4.522 78.5464 4.41C78.4984 4.298 78.4744 4.178 78.4744 4.05C78.4744 3.918 78.4984 3.794 78.5464 3.678C78.5984 3.562 78.6664 3.462 78.7504 3.378C78.8344 3.294 78.9324 3.228 79.0444 3.18C79.1604 3.128 79.2824 3.102 79.4104 3.102C79.5424 3.102 79.6664 3.128 79.7824 3.18C79.8984 3.228 79.9984 3.294 80.0824 3.378C80.1704 3.462 80.2404 3.562 80.2924 3.678C80.3444 3.794 80.3704 3.918 80.3704 4.05ZM83.1593 6.504C83.3993 6.28 83.6633 6.098 83.9513 5.958C84.2393 5.818 84.5773 5.748 84.9653 5.748C85.3013 5.748 85.5993 5.806 85.8593 5.922C86.1193 6.034 86.3353 6.194 86.5073 6.402C86.6833 6.606 86.8153 6.852 86.9033 7.14C86.9953 7.424 87.0413 7.738 87.0413 8.082V12H85.5593V8.082C85.5593 7.706 85.4733 7.416 85.3013 7.212C85.1293 7.004 84.8673 6.9 84.5153 6.9C84.2593 6.9 84.0193 6.958 83.7953 7.074C83.5713 7.19 83.3593 7.348 83.1593 7.548V12H81.6773V3.084H83.1593V6.504ZM91.7028 9.372C91.2748 9.392 90.9148 9.43 90.6228 9.486C90.3308 9.538 90.0968 9.606 89.9208 9.69C89.7448 9.774 89.6188 9.872 89.5428 9.984C89.4668 10.096 89.4288 10.218 89.4288 10.35C89.4288 10.61 89.5048 10.796 89.6568 10.908C89.8128 11.02 90.0148 11.076 90.2628 11.076C90.5668 11.076 90.8288 11.022 91.0488 10.914C91.2728 10.802 91.4908 10.634 91.7028 10.41V9.372ZM88.3068 6.702C89.0148 6.054 89.8668 5.73 90.8628 5.73C91.2228 5.73 91.5448 5.79 91.8288 5.91C92.1128 6.026 92.3528 6.19 92.5488 6.402C92.7448 6.61 92.8928 6.86 92.9928 7.152C93.0968 7.444 93.1488 7.764 93.1488 8.112V12H92.4768C92.3368 12 92.2288 11.98 92.1528 11.94C92.0768 11.896 92.0168 11.81 91.9728 11.682L91.8408 11.238C91.6848 11.378 91.5328 11.502 91.3848 11.61C91.2368 11.714 91.0828 11.802 90.9228 11.874C90.7628 11.946 90.5908 12 90.4068 12.036C90.2268 12.076 90.0268 12.096 89.8068 12.096C89.5468 12.096 89.3068 12.062 89.0868 11.994C88.8668 11.922 88.6768 11.816 88.5168 11.676C88.3568 11.536 88.2328 11.362 88.1448 11.154C88.0568 10.946 88.0128 10.704 88.0128 10.428C88.0128 10.272 88.0388 10.118 88.0908 9.966C88.1428 9.81 88.2268 9.662 88.3428 9.522C88.4628 9.382 88.6168 9.25 88.8048 9.126C88.9928 9.002 89.2228 8.894 89.4948 8.802C89.7708 8.71 90.0908 8.636 90.4548 8.58C90.8188 8.52 91.2348 8.484 91.7028 8.472V8.112C91.7028 7.7 91.6148 7.396 91.4388 7.2C91.2628 7 91.0088 6.9 90.6768 6.9C90.4368 6.9 90.2368 6.928 90.0768 6.984C89.9208 7.04 89.7828 7.104 89.6628 7.176C89.5428 7.244 89.4328 7.306 89.3328 7.362C89.2368 7.418 89.1288 7.446 89.0088 7.446C88.9048 7.446 88.8168 7.42 88.7448 7.368C88.6728 7.312 88.6148 7.248 88.5708 7.176L88.3068 6.702ZM95.9305 6.6C96.0545 6.476 96.1845 6.362 96.3205 6.258C96.4605 6.15 96.6065 6.06 96.7585 5.988C96.9145 5.912 97.0805 5.854 97.2565 5.814C97.4325 5.77 97.6245 5.748 97.8325 5.748C98.1685 5.748 98.4665 5.806 98.7265 5.922C98.9865 6.034 99.2025 6.194 99.3745 6.402C99.5505 6.606 99.6825 6.852 99.7705 7.14C99.8625 7.424 99.9085 7.738 99.9085 8.082V12H98.4265V8.082C98.4265 7.706 98.3405 7.416 98.1685 7.212C97.9965 7.004 97.7345 6.9 97.3825 6.9C97.1265 6.9 96.8865 6.958 96.6625 7.074C96.4385 7.19 96.2265 7.348 96.0265 7.548V12H94.5445V5.844H95.4505C95.6425 5.844 95.7685 5.934 95.8285 6.114L95.9305 6.6Z" fill="#1B3180"/>
<path d="M1.5 43V19.7273H11.5455C13.2727 19.7273 14.7841 20.0682 16.0795 20.75C17.375 21.4318 18.3826 22.3902 19.1023 23.625C19.822 24.8598 20.1818 26.303 20.1818 27.9545C20.1818 29.6212 19.8106 31.0644 19.0682 32.2841C18.3333 33.5038 17.2992 34.4432 15.9659 35.1023C14.6402 35.7614 13.0909 36.0909 11.3182 36.0909H5.31818V31.1818H10.0455C10.7879 31.1818 11.4205 31.053 11.9432 30.7955C12.4735 30.5303 12.8788 30.1553 13.1591 29.6705C13.447 29.1856 13.5909 28.6136 13.5909 27.9545C13.5909 27.2879 13.447 26.7197 13.1591 26.25C12.8788 25.7727 12.4735 25.4091 11.9432 25.1591C11.4205 24.9015 10.7879 24.7727 10.0455 24.7727H7.81818V43H1.5ZM25.6392 43H18.821L26.5028 19.7273H35.1392L42.821 43H36.0028L30.9119 26.1364H30.7301L25.6392 43ZM24.3665 33.8182H37.1847V38.5455H24.3665V33.8182ZM65.1989 19.7273V43H59.9261L51.517 30.7727H51.3807V43H45.0625V19.7273H50.4261L58.6989 31.9091H58.8807V19.7273H65.1989ZM89.9148 28.4545H83.5057C83.4602 27.9242 83.339 27.4432 83.142 27.0114C82.9527 26.5795 82.6875 26.2083 82.3466 25.8977C82.0133 25.5795 81.608 25.3371 81.1307 25.1705C80.6534 24.9962 80.1117 24.9091 79.5057 24.9091C78.4451 24.9091 77.5473 25.1667 76.8125 25.6818C76.0852 26.197 75.5322 26.9356 75.1534 27.8977C74.7822 28.8598 74.5966 30.0152 74.5966 31.3636C74.5966 32.7879 74.786 33.9811 75.1648 34.9432C75.5511 35.8977 76.108 36.6174 76.8352 37.1023C77.5625 37.5795 78.4375 37.8182 79.4602 37.8182C80.0436 37.8182 80.5663 37.7462 81.0284 37.6023C81.4905 37.4508 81.892 37.2348 82.233 36.9545C82.5739 36.6742 82.8504 36.3371 83.0625 35.9432C83.2822 35.5417 83.4299 35.0909 83.5057 34.5909L89.9148 34.6364C89.839 35.6212 89.5625 36.625 89.0852 37.6477C88.608 38.6629 87.9299 39.6023 87.0511 40.4659C86.1799 41.322 85.1004 42.0114 83.8125 42.5341C82.5246 43.0568 81.0284 43.3182 79.3239 43.3182C77.1875 43.3182 75.2708 42.8598 73.5739 41.9432C71.8845 41.0265 70.5473 39.678 69.5625 37.8977C68.5852 36.1174 68.0966 33.9394 68.0966 31.3636C68.0966 28.7727 68.5966 26.5909 69.5966 24.8182C70.5966 23.0379 71.9451 21.6932 73.642 20.7841C75.339 19.8674 77.233 19.4091 79.3239 19.4091C80.7936 19.4091 82.1458 19.6098 83.3807 20.0114C84.6155 20.4129 85.6989 21 86.6307 21.7727C87.5625 22.5379 88.3125 23.4811 88.8807 24.6023C89.4489 25.7235 89.7936 27.0076 89.9148 28.4545ZM99.0994 19.7273V43H92.7812V19.7273H99.0994Z" fill="#1B3180"/>
</svg>
